# Blender v2.76 (sub 0) OBJ File: ''
# www.blender.org
mtllib gem.mtl
o Diamond_Cube.003
v -1.414214 0.000000 0.000000
v 0.000000 0.000000 -1.414214
v 0.000000 -0.220000 -1.060660
v -1.060660 -0.220000 -0.000000
v 1.414214 0.000000 0.000000
v 1.060660 -0.220000 -0.000000
v 0.000000 -0.000000 1.414214
v 0.000000 -0.220000 1.060660
v 0.000000 0.220000 1.060660
v 1.060660 0.220000 0.000000
v 0.000000 0.220000 -1.060660
v -1.060660 0.220000 0.000000
v -1.414214 0.000000 0.000000
v 0.000000 0.000000 -1.414214
v 0.000000 -0.220000 -1.060660
v -1.060660 -0.220000 -0.000000
v 0.000000 0.000000 -1.414214
v 1.414214 0.000000 0.000000
v 1.060660 -0.220000 -0.000000
v 0.000000 -0.220000 -1.060660
v 1.414214 0.000000 0.000000
v 0.000000 -0.000000 1.414214
v 0.000000 -0.220000 1.060660
v 1.060660 -0.220000 -0.000000
v 0.000000 -0.000000 1.414214
v -1.414214 0.000000 0.000000
v -1.060660 -0.220000 -0.000000
v 0.000000 -0.220000 1.060660
v -1.060660 -0.220000 -0.000000
v 0.000000 -0.220000 -1.060660
v 1.060660 -0.220000 -0.000000
v 0.000000 -0.220000 1.060660
v 0.000000 0.220000 1.060660
v 1.060660 0.220000 0.000000
v 0.000000 0.220000 -1.060660
v -1.060660 0.220000 0.000000
v 0.000000 0.220000 1.060660
v -1.060660 0.220000 0.000000
v -1.414214 0.000000 0.000000
v 0.000000 -0.000000 1.414214
v 1.060660 0.220000 0.000000
v 0.000000 0.220000 1.060660
v 0.000000 -0.000000 1.414214
v 1.414214 0.000000 0.000000
v 0.000000 0.220000 -1.060660
v 1.060660 0.220000 0.000000
v 1.414214 0.000000 0.000000
v 0.000000 0.000000 -1.414214
v -1.060660 0.220000 0.000000
v 0.000000 0.220000 -1.060660
v 0.000000 0.000000 -1.414214
v -1.414214 0.000000 0.000000
vt 0.014563 0.492718
vt 0.014563 0.007282
vt 0.135922 0.067961
vt 0.135922 0.432039
vt 0.985437 0.007282
vt 0.864078 0.067961
vt 0.985437 0.492718
vt 0.864078 0.432039
vt 0.135922 0.567961
vt 0.864078 0.567961
vt 0.864078 0.932039
vt 0.135922 0.932039
vt 0.014563 0.992718
vt 0.014563 0.507282
vt 0.985437 0.507282
vt 0.985437 0.992718
vn -0.467100 -0.750700 -0.467100
vn 0.000000 0.000000 1.000000
vn 0.467100 -0.750700 -0.467100
vn 0.467100 -0.750700 0.467100
vn -0.467100 -0.750700 0.467100
vn 0.000000 -1.000000 -0.000000
vn 0.000000 1.000000 0.000000
vn -0.467100 0.750700 0.467100
vn 0.467100 0.750700 0.467100
vn 0.467100 0.750700 -0.467100
vn -0.467100 0.750700 -0.467100
usemtl Material
s off
f 13/1/1 14/2/1 15/3/1 16/4/1
f 2/2/2 14/2/2 13/1/2 1/1/2
f 3/3/2 15/3/2 14/2/2 2/2/2
f 4/4/2 16/4/2 15/3/2 3/3/2
f 1/1/2 13/1/2 16/4/2 4/4/2
f 17/2/3 18/5/3 19/6/3 20/3/3
f 5/5/2 18/5/2 17/2/2 2/2/2
f 6/6/2 19/6/2 18/5/2 5/5/2
f 3/3/2 20/3/2 19/6/2 6/6/2
f 2/2/2 17/2/2 20/3/2 3/3/2
f 21/5/4 22/7/4 23/8/4 24/6/4
f 7/7/2 22/7/2 21/5/2 5/5/2
f 8/8/2 23/8/2 22/7/2 7/7/2
f 6/6/2 24/6/2 23/8/2 8/8/2
f 5/5/2 21/5/2 24/6/2 6/6/2
f 25/7/5 26/1/5 27/4/5 28/8/5
f 1/1/2 26/1/2 25/7/2 7/7/2
f 4/4/2 27/4/2 26/1/2 1/1/2
f 8/8/2 28/8/2 27/4/2 4/4/2
f 7/7/2 25/7/2 28/8/2 8/8/2
f 29/4/6 30/3/6 31/6/6 32/8/6
f 3/3/2 30/3/2 29/4/2 4/4/2
f 6/6/2 31/6/2 30/3/2 3/3/2
f 8/8/2 32/8/2 31/6/2 6/6/2
f 4/4/2 29/4/2 32/8/2 8/8/2
f 33/9/7 34/10/7 35/11/7 36/12/7
f 10/10/2 34/10/2 33/9/2 9/9/2
f 11/11/2 35/11/2 34/10/2 10/10/2
f 12/12/2 36/12/2 35/11/2 11/11/2
f 9/9/2 33/9/2 36/12/2 12/12/2
f 37/9/8 38/12/8 39/13/8 40/14/8
f 12/12/2 38/12/2 37/9/2 9/9/2
f 1/13/2 39/13/2 38/12/2 12/12/2
f 7/14/2 40/14/2 39/13/2 1/13/2
f 9/9/2 37/9/2 40/14/2 7/14/2
f 41/10/9 42/9/9 43/14/9 44/15/9
f 9/9/2 42/9/2 41/10/2 10/10/2
f 7/14/2 43/14/2 42/9/2 9/9/2
f 5/15/2 44/15/2 43/14/2 7/14/2
f 10/10/2 41/10/2 44/15/2 5/15/2
f 45/11/10 46/10/10 47/15/10 48/16/10
f 10/10/2 46/10/2 45/11/2 11/11/2
f 5/15/2 47/15/2 46/10/2 10/10/2
f 2/16/2 48/16/2 47/15/2 5/15/2
f 11/11/2 45/11/2 48/16/2 2/16/2
f 49/12/11 50/11/11 51/16/11 52/13/11
f 11/11/2 50/11/2 49/12/2 12/12/2
f 2/16/2 51/16/2 50/11/2 11/11/2
f 1/13/2 52/13/2 51/16/2 2/16/2
f 12/12/2 49/12/2 52/13/2 1/13/2
