# Blender v2.76 (sub 0) OBJ File: 'Coin.blend'
# www.blender.org
mtllib Coin.mtl
o Cylinder
v 0.000000 -0.050000 -1.000000
v 0.000000 0.050000 -1.000000
v 0.195090 -0.050000 -0.980785
v 0.195090 0.050000 -0.980785
v 0.382683 -0.050000 -0.923880
v 0.382683 0.050000 -0.923880
v 0.555570 -0.050000 -0.831470
v 0.555570 0.050000 -0.831470
v 0.707107 -0.050000 -0.707107
v 0.707107 0.050000 -0.707107
v 0.831470 -0.050000 -0.555570
v 0.831470 0.050000 -0.555570
v 0.923880 -0.050000 -0.382683
v 0.923880 0.050000 -0.382683
v 0.980785 -0.050000 -0.195090
v 0.980785 0.050000 -0.195090
v 1.000000 -0.050000 -0.000000
v 1.000000 0.050000 -0.000000
v 0.980785 -0.050000 0.195090
v 0.980785 0.050000 0.195090
v 0.923880 -0.050000 0.382683
v 0.923880 0.050000 0.382683
v 0.831470 -0.050000 0.555570
v 0.831470 0.050000 0.555570
v 0.707107 -0.050000 0.707107
v 0.707107 0.050000 0.707107
v 0.555570 -0.050000 0.831470
v 0.555570 0.050000 0.831470
v 0.382683 -0.050000 0.923880
v 0.382683 0.050000 0.923880
v 0.195090 -0.050000 0.980785
v 0.195090 0.050000 0.980785
v -0.000000 -0.050000 1.000000
v -0.000000 0.050000 1.000000
v -0.195091 -0.050000 0.980785
v -0.195091 0.050000 0.980785
v -0.382684 -0.050000 0.923879
v -0.382684 0.050000 0.923879
v -0.555571 -0.050000 0.831469
v -0.555571 0.050000 0.831469
v -0.707107 -0.050000 0.707106
v -0.707107 0.050000 0.707106
v -0.831470 -0.050000 0.555570
v -0.831470 0.050000 0.555570
v -0.923880 -0.050000 0.382683
v -0.923880 0.050000 0.382683
v -0.980785 -0.050000 0.195089
v -0.980785 0.050000 0.195089
v -1.000000 -0.050000 -0.000001
v -1.000000 0.050000 -0.000001
v -0.980785 -0.050000 -0.195091
v -0.980785 0.050000 -0.195091
v -0.923879 -0.050000 -0.382684
v -0.923879 0.050000 -0.382684
v -0.831469 -0.050000 -0.555571
v -0.831469 0.050000 -0.555571
v -0.707106 -0.050000 -0.707108
v -0.707106 0.050000 -0.707108
v -0.555569 -0.050000 -0.831470
v -0.555569 0.050000 -0.831470
v -0.382682 -0.050000 -0.923880
v -0.382682 0.050000 -0.923880
v -0.195089 -0.050000 -0.980786
v -0.195089 0.050000 -0.980786
vt 1.000000 0.525000
vt 0.968750 0.525000
vt 0.968750 0.475000
vt 0.937500 0.525000
vt 0.937500 0.475000
vt 0.906250 0.525000
vt 0.906250 0.475000
vt 0.875000 0.525000
vt 0.875000 0.475000
vt 0.843750 0.525000
vt 0.843750 0.475000
vt 0.812500 0.525000
vt 0.812500 0.475000
vt 0.781250 0.525000
vt 0.781250 0.475000
vt 0.750000 0.525000
vt 0.750000 0.475000
vt 0.718750 0.525000
vt 0.718750 0.475000
vt 0.687500 0.525000
vt 0.687500 0.475000
vt 0.656250 0.525000
vt 0.656250 0.475000
vt 0.625000 0.525000
vt 0.625000 0.475000
vt 0.593750 0.525000
vt 0.593750 0.475000
vt 0.562500 0.525000
vt 0.562500 0.475000
vt 0.531250 0.525000
vt 0.531250 0.475000
vt 0.500000 0.525000
vt 0.500000 0.475000
vt 0.468750 0.525000
vt 0.468750 0.475000
vt 0.437500 0.525000
vt 0.437500 0.475000
vt 0.406250 0.525000
vt 0.406250 0.475000
vt 0.375000 0.525000
vt 0.375000 0.475000
vt 0.343750 0.525000
vt 0.343750 0.475000
vt 0.312500 0.525000
vt 0.312500 0.475000
vt 0.281250 0.525000
vt 0.281250 0.475000
vt 0.250000 0.525000
vt 0.250000 0.475000
vt 0.218750 0.525000
vt 0.218750 0.475000
vt 0.187500 0.525000
vt 0.187500 0.475000
vt 0.156250 0.525000
vt 0.156250 0.475000
vt 0.125000 0.525000
vt 0.125000 0.475000
vt 0.093750 0.525000
vt 0.093750 0.475000
vt 0.062500 0.525000
vt 0.062500 0.475000
vt 0.578902 0.565240
vt 0.686437 0.675147
vt 0.574852 0.936438
vt 0.031250 0.525000
vt 0.000000 0.525000
vt 0.000000 0.475000
vt 0.031250 0.475000
vt 0.537051 0.447501
vt 0.302498 0.287049
vt 0.697502 0.212948
vt 1.000000 0.475000
vt 0.537042 0.947458
vt 0.497808 0.950891
vt 0.458659 0.946603
vt 0.421097 0.934760
vt 0.386569 0.915817
vt 0.356399 0.890502
vt 0.331748 0.859787
vt 0.313562 0.824852
vt 0.302542 0.787042
vt 0.299109 0.747808
vt 0.303397 0.708659
vt 0.315240 0.671098
vt 0.334183 0.636569
vt 0.425147 0.563563
vt 0.359498 0.606399
vt 0.390213 0.581748
vt 0.462957 0.552542
vt 0.502192 0.549109
vt 0.541341 0.553397
vt 0.613431 0.584183
vt 0.643601 0.609499
vt 0.668252 0.640213
vt 0.697458 0.712957
vt 0.700890 0.752191
vt 0.696603 0.791341
vt 0.684760 0.828902
vt 0.665817 0.863431
vt 0.640501 0.893601
vt 0.609786 0.918252
vt 0.462949 0.052497
vt 0.502191 0.049064
vt 0.541349 0.053352
vt 0.578919 0.065198
vt 0.613456 0.084145
vt 0.643632 0.109466
vt 0.668289 0.140188
vt 0.686479 0.175129
vt 0.700936 0.252191
vt 0.696647 0.291349
vt 0.684802 0.328919
vt 0.665854 0.363456
vt 0.640533 0.393632
vt 0.609811 0.418289
vt 0.574870 0.436478
vt 0.497808 0.450934
vt 0.458649 0.446646
vt 0.421079 0.434800
vt 0.386543 0.415852
vt 0.356367 0.390531
vt 0.331710 0.359809
vt 0.313521 0.324867
vt 0.299064 0.247806
vt 0.303353 0.208648
vt 0.315199 0.171079
vt 0.334146 0.136543
vt 0.359467 0.106367
vt 0.390188 0.081710
vt 0.425130 0.063521
vn 0.098000 0.000000 -0.995200
vn 0.290300 0.000000 -0.956900
vn 0.471400 0.000000 -0.881900
vn 0.634400 0.000000 -0.773000
vn 0.773000 0.000000 -0.634400
vn 0.881900 0.000000 -0.471400
vn 0.956900 0.000000 -0.290300
vn 0.995200 0.000000 -0.098000
vn 0.995200 0.000000 0.098000
vn 0.956900 0.000000 0.290300
vn 0.881900 0.000000 0.471400
vn 0.773000 0.000000 0.634400
vn 0.634400 0.000000 0.773000
vn 0.471400 0.000000 0.881900
vn 0.290300 0.000000 0.956900
vn 0.098000 0.000000 0.995200
vn -0.098000 0.000000 0.995200
vn -0.290300 0.000000 0.956900
vn -0.471400 0.000000 0.881900
vn -0.634400 0.000000 0.773000
vn -0.773000 0.000000 0.634400
vn -0.881900 0.000000 0.471400
vn -0.956900 0.000000 0.290300
vn -0.995200 0.000000 0.098000
vn -0.995200 0.000000 -0.098000
vn -0.956900 0.000000 -0.290300
vn -0.881900 0.000000 -0.471400
vn -0.773000 0.000000 -0.634400
vn -0.634400 0.000000 -0.773000
vn -0.471400 0.000000 -0.881900
vn 0.000000 1.000000 0.000000
vn -0.098000 0.000000 -0.995200
vn -0.290300 0.000000 -0.956900
vn 0.000000 -1.000000 0.000000
usemtl None
s off
f 2/1/1 4/2/1 3/3/1
f 4/2/2 6/4/2 5/5/2
f 6/4/3 8/6/3 7/7/3
f 8/6/4 10/8/4 9/9/4
f 10/8/5 12/10/5 11/11/5
f 12/10/6 14/12/6 13/13/6
f 14/12/7 16/14/7 15/15/7
f 16/14/8 18/16/8 17/17/8
f 18/16/9 20/18/9 19/19/9
f 20/18/10 22/20/10 21/21/10
f 22/20/11 24/22/11 23/23/11
f 24/22/12 26/24/12 25/25/12
f 26/24/13 28/26/13 27/27/13
f 28/26/14 30/28/14 29/29/14
f 30/28/15 32/30/15 31/31/15
f 32/30/16 34/32/16 33/33/16
f 34/32/17 36/34/17 35/35/17
f 36/34/18 38/36/18 37/37/18
f 38/36/19 40/38/19 39/39/19
f 40/38/20 42/40/20 41/41/20
f 42/40/21 44/42/21 43/43/21
f 44/42/22 46/44/22 45/45/22
f 46/44/23 48/46/23 47/47/23
f 48/46/24 50/48/24 49/49/24
f 50/48/25 52/50/25 51/51/25
f 52/50/26 54/52/26 53/53/26
f 54/52/27 56/54/27 55/55/27
f 56/54/28 58/56/28 57/57/28
f 58/56/29 60/58/29 59/59/29
f 60/58/30 62/60/30 61/61/30
f 30/62/31 22/63/31 6/64/31
f 64/65/32 2/66/32 1/67/32
f 62/60/33 64/65/33 63/68/33
f 31/69/34 47/70/34 15/71/34
f 1/72/1 2/1/1 3/3/1
f 3/3/2 4/2/2 5/5/2
f 5/5/3 6/4/3 7/7/3
f 7/7/4 8/6/4 9/9/4
f 9/9/5 10/8/5 11/11/5
f 11/11/6 12/10/6 13/13/6
f 13/13/7 14/12/7 15/15/7
f 15/15/8 16/14/8 17/17/8
f 17/17/9 18/16/9 19/19/9
f 19/19/10 20/18/10 21/21/10
f 21/21/11 22/20/11 23/23/11
f 23/23/12 24/22/12 25/25/12
f 25/25/13 26/24/13 27/27/13
f 27/27/14 28/26/14 29/29/14
f 29/29/15 30/28/15 31/31/15
f 31/31/16 32/30/16 33/33/16
f 33/33/17 34/32/17 35/35/17
f 35/35/18 36/34/18 37/37/18
f 37/37/19 38/36/19 39/39/19
f 39/39/20 40/38/20 41/41/20
f 41/41/21 42/40/21 43/43/21
f 43/43/22 44/42/22 45/45/22
f 45/45/23 46/44/23 47/47/23
f 47/47/24 48/46/24 49/49/24
f 49/49/25 50/48/25 51/51/25
f 51/51/26 52/50/26 53/53/26
f 53/53/27 54/52/27 55/55/27
f 55/55/28 56/54/28 57/57/28
f 57/57/29 58/56/29 59/59/29
f 59/59/30 60/58/30 61/61/30
f 6/64/31 4/73/31 2/74/31
f 2/74/31 64/75/31 6/64/31
f 62/76/31 60/77/31 58/78/31
f 58/78/31 56/79/31 54/80/31
f 54/80/31 52/81/31 50/82/31
f 50/82/31 48/83/31 54/80/31
f 46/84/31 44/85/31 38/86/31
f 42/87/31 40/88/31 38/86/31
f 38/86/31 36/89/31 34/90/31
f 34/90/31 32/91/31 38/86/31
f 30/62/31 28/92/31 22/63/31
f 26/93/31 24/94/31 22/63/31
f 22/63/31 20/95/31 18/96/31
f 18/96/31 16/97/31 14/98/31
f 14/98/31 12/99/31 10/100/31
f 10/100/31 8/101/31 6/64/31
f 6/64/31 64/75/31 62/76/31
f 62/76/31 58/78/31 54/80/31
f 54/80/31 48/83/31 46/84/31
f 44/85/31 42/87/31 38/86/31
f 38/86/31 32/91/31 30/62/31
f 28/92/31 26/93/31 22/63/31
f 22/63/31 18/96/31 14/98/31
f 14/98/31 10/100/31 22/63/31
f 6/64/31 62/76/31 54/80/31
f 54/80/31 46/84/31 38/86/31
f 38/86/31 30/62/31 6/64/31
f 22/63/31 10/100/31 6/64/31
f 6/64/31 54/80/31 38/86/31
f 63/68/32 64/65/32 1/67/32
f 61/61/33 62/60/33 63/68/33
f 63/102/34 1/103/34 3/104/34
f 3/104/34 5/105/34 7/106/34
f 7/106/34 9/107/34 11/108/34
f 11/108/34 13/109/34 7/106/34
f 15/71/34 17/110/34 19/111/34
f 19/111/34 21/112/34 15/71/34
f 23/113/34 25/114/34 31/69/34
f 27/115/34 29/116/34 31/69/34
f 31/69/34 33/117/34 35/118/34
f 35/118/34 37/119/34 39/120/34
f 39/120/34 41/121/34 43/122/34
f 43/122/34 45/123/34 47/70/34
f 47/70/34 49/124/34 51/125/34
f 51/125/34 53/126/34 55/127/34
f 55/127/34 57/128/34 63/102/34
f 59/129/34 61/130/34 63/102/34
f 63/102/34 3/104/34 15/71/34
f 7/106/34 13/109/34 15/71/34
f 15/71/34 21/112/34 23/113/34
f 25/114/34 27/115/34 31/69/34
f 31/69/34 35/118/34 47/70/34
f 39/120/34 43/122/34 47/70/34
f 47/70/34 51/125/34 63/102/34
f 57/128/34 59/129/34 63/102/34
f 3/104/34 7/106/34 15/71/34
f 15/71/34 23/113/34 31/69/34
f 35/118/34 39/120/34 47/70/34
f 51/125/34 55/127/34 63/102/34
f 63/102/34 15/71/34 47/70/34
