# Blender v2.76 (sub 0) OBJ File: 'throwring.blend'
# www.blender.org
mtllib throwring.mtl
o Torus
v 1.250000 0.000000 0.000000
v 1.125000 0.108253 0.000000
v 0.875000 0.108253 0.000000
v 0.750000 0.000000 0.000000
v 0.875000 -0.108253 0.000000
v 1.125000 -0.108253 0.000000
v 1.154850 0.000000 -0.478354
v 1.039365 0.108253 -0.430519
v 0.808395 0.108253 -0.334848
v 0.692910 0.000000 -0.287013
v 0.808395 -0.108253 -0.334848
v 1.039365 -0.108253 -0.430519
v 0.883883 0.000000 -0.883884
v 0.795495 0.108253 -0.795495
v 0.618718 0.108253 -0.618718
v 0.530330 0.000000 -0.530330
v 0.618718 -0.108253 -0.618718
v 0.795495 -0.108253 -0.795495
v 0.478355 0.000000 -1.154849
v 0.430519 0.108253 -1.039364
v 0.334848 0.108253 -0.808394
v 0.287013 0.000000 -0.692910
v 0.334848 -0.108253 -0.808394
v 0.430519 -0.108253 -1.039364
v 0.000000 0.000000 -1.250000
v 0.000000 0.108253 -1.125000
v 0.000000 0.108253 -0.875000
v 0.000000 0.000000 -0.750000
v 0.000000 -0.108253 -0.875000
v 0.000000 -0.108253 -1.125000
v -0.478354 0.000000 -1.154849
v -0.430519 0.108253 -1.039364
v -0.334848 0.108253 -0.808395
v -0.287013 0.000000 -0.692910
v -0.334848 -0.108253 -0.808395
v -0.430519 -0.108253 -1.039364
v -0.883884 0.000000 -0.883883
v -0.795495 0.108253 -0.795495
v -0.618719 0.108253 -0.618718
v -0.530330 0.000000 -0.530330
v -0.618719 -0.108253 -0.618718
v -0.795495 -0.108253 -0.795495
v -1.154849 0.000000 -0.478354
v -1.039364 0.108253 -0.430519
v -0.808394 0.108253 -0.334848
v -0.692910 0.000000 -0.287013
v -0.808394 -0.108253 -0.334848
v -1.039364 -0.108253 -0.430519
v -1.250000 0.000000 -0.000000
v -1.125000 0.108253 -0.000000
v -0.875000 0.108253 -0.000000
v -0.750000 0.000000 -0.000000
v -0.875000 -0.108253 -0.000000
v -1.125000 -0.108253 -0.000000
v -1.154850 0.000000 0.478354
v -1.039365 0.108253 0.430518
v -0.808395 0.108253 0.334848
v -0.692910 0.000000 0.287012
v -0.808395 -0.108253 0.334848
v -1.039365 -0.108253 0.430518
v -0.883884 0.000000 0.883883
v -0.795495 0.108253 0.795495
v -0.618719 0.108253 0.618718
v -0.530330 0.000000 0.530330
v -0.618719 -0.108253 0.618718
v -0.795495 -0.108253 0.795495
v -0.478354 0.000000 1.154849
v -0.430519 0.108253 1.039364
v -0.334848 0.108253 0.808395
v -0.287013 0.000000 0.692910
v -0.334848 -0.108253 0.808395
v -0.430519 -0.108253 1.039364
v 0.000000 0.000000 1.250000
v 0.000000 0.108253 1.125000
v 0.000000 0.108253 0.875000
v 0.000000 0.000000 0.750000
v 0.000000 -0.108253 0.875000
v 0.000000 -0.108253 1.125000
v 0.478355 0.000000 1.154849
v 0.430519 0.108253 1.039364
v 0.334848 0.108253 0.808394
v 0.287013 0.000000 0.692910
v 0.334848 -0.108253 0.808394
v 0.430519 -0.108253 1.039364
v 0.883883 0.000000 0.883884
v 0.795495 0.108253 0.795496
v 0.618718 0.108253 0.618719
v 0.530330 0.000000 0.530330
v 0.618718 -0.108253 0.618719
v 0.795495 -0.108253 0.795496
v 1.154849 0.000000 0.478355
v 1.039364 0.108253 0.430519
v 0.808394 0.108253 0.334848
v 0.692909 0.000000 0.287013
v 0.808394 -0.108253 0.334848
v 1.039364 -0.108253 0.430519
vn 0.649200 0.749600 -0.129100
vn 0.000000 1.000000 0.000000
vn -0.649200 0.749600 0.129100
vn -0.649200 -0.749600 0.129100
vn 0.000000 -1.000000 0.000000
vn 0.649200 -0.749600 -0.129100
vn 0.550300 0.749600 -0.367700
vn -0.550300 0.749600 0.367700
vn -0.550300 -0.749600 0.367700
vn 0.550300 -0.749600 -0.367700
vn 0.367700 0.749600 -0.550300
vn -0.367700 0.749600 0.550300
vn -0.367700 -0.749600 0.550300
vn 0.367700 -0.749600 -0.550300
vn 0.129100 0.749600 -0.649200
vn -0.129100 0.749600 0.649200
vn -0.129100 -0.749600 0.649200
vn 0.129100 -0.749600 -0.649200
vn -0.129100 0.749600 -0.649200
vn 0.129100 0.749600 0.649200
vn 0.129100 -0.749600 0.649200
vn -0.129100 -0.749600 -0.649200
vn -0.367700 0.749600 -0.550300
vn 0.367700 0.749600 0.550300
vn 0.367700 -0.749600 0.550300
vn -0.367700 -0.749600 -0.550300
vn -0.550300 0.749600 -0.367700
vn 0.550300 0.749600 0.367700
vn 0.550300 -0.749600 0.367700
vn -0.550300 -0.749600 -0.367700
vn -0.649200 0.749600 -0.129100
vn 0.649200 0.749600 0.129100
vn 0.649200 -0.749600 0.129100
vn -0.649200 -0.749600 -0.129100
usemtl None
s off
f 1//1 7//1 8//1 2//1
f 2//2 8//2 9//2 3//2
f 3//3 9//3 10//3 4//3
f 4//4 10//4 11//4 5//4
f 5//5 11//5 12//5 6//5
f 1//6 6//6 12//6 7//6
f 7//7 13//7 14//7 8//7
f 8//2 14//2 15//2 9//2
f 9//8 15//8 16//8 10//8
f 10//9 16//9 17//9 11//9
f 11//5 17//5 18//5 12//5
f 12//10 18//10 13//10 7//10
f 13//11 19//11 20//11 14//11
f 14//2 20//2 21//2 15//2
f 15//12 21//12 22//12 16//12
f 16//13 22//13 23//13 17//13
f 17//5 23//5 24//5 18//5
f 18//14 24//14 19//14 13//14
f 19//15 25//15 26//15 20//15
f 20//2 26//2 27//2 21//2
f 21//16 27//16 28//16 22//16
f 22//17 28//17 29//17 23//17
f 23//5 29//5 30//5 24//5
f 24//18 30//18 25//18 19//18
f 25//19 31//19 32//19 26//19
f 26//2 32//2 33//2 27//2
f 27//20 33//20 34//20 28//20
f 28//21 34//21 35//21 29//21
f 29//5 35//5 36//5 30//5
f 30//22 36//22 31//22 25//22
f 31//23 37//23 38//23 32//23
f 32//2 38//2 39//2 33//2
f 33//24 39//24 40//24 34//24
f 34//25 40//25 41//25 35//25
f 35//5 41//5 42//5 36//5
f 36//26 42//26 37//26 31//26
f 37//27 43//27 44//27 38//27
f 38//2 44//2 45//2 39//2
f 39//28 45//28 46//28 40//28
f 40//29 46//29 47//29 41//29
f 41//5 47//5 48//5 42//5
f 42//30 48//30 43//30 37//30
f 43//31 49//31 50//31 44//31
f 44//2 50//2 51//2 45//2
f 45//32 51//32 52//32 46//32
f 46//33 52//33 53//33 47//33
f 47//5 53//5 54//5 48//5
f 48//34 54//34 49//34 43//34
f 49//3 55//3 56//3 50//3
f 50//2 56//2 57//2 51//2
f 51//1 57//1 58//1 52//1
f 52//6 58//6 59//6 53//6
f 53//5 59//5 60//5 54//5
f 54//4 60//4 55//4 49//4
f 55//8 61//8 62//8 56//8
f 56//2 62//2 63//2 57//2
f 57//7 63//7 64//7 58//7
f 58//10 64//10 65//10 59//10
f 59//5 65//5 66//5 60//5
f 60//9 66//9 61//9 55//9
f 61//12 67//12 68//12 62//12
f 62//2 68//2 69//2 63//2
f 63//11 69//11 70//11 64//11
f 64//14 70//14 71//14 65//14
f 65//5 71//5 72//5 66//5
f 66//13 72//13 67//13 61//13
f 67//16 73//16 74//16 68//16
f 68//2 74//2 75//2 69//2
f 69//15 75//15 76//15 70//15
f 70//18 76//18 77//18 71//18
f 71//5 77//5 78//5 72//5
f 72//17 78//17 73//17 67//17
f 73//20 79//20 80//20 74//20
f 74//2 80//2 81//2 75//2
f 75//19 81//19 82//19 76//19
f 76//22 82//22 83//22 77//22
f 77//5 83//5 84//5 78//5
f 78//21 84//21 79//21 73//21
f 79//24 85//24 86//24 80//24
f 80//2 86//2 87//2 81//2
f 81//23 87//23 88//23 82//23
f 82//26 88//26 89//26 83//26
f 83//5 89//5 90//5 84//5
f 84//25 90//25 85//25 79//25
f 85//28 91//28 92//28 86//28
f 86//2 92//2 93//2 87//2
f 87//27 93//27 94//27 88//27
f 88//30 94//30 95//30 89//30
f 89//5 95//5 96//5 90//5
f 90//29 96//29 91//29 85//29
f 91//32 1//32 2//32 92//32
f 92//2 2//2 3//2 93//2
f 93//31 3//31 4//31 94//31
f 94//34 4//34 5//34 95//34
f 95//5 5//5 6//5 96//5
f 96//33 6//33 1//33 91//33
